<svg width="3109" height="659" viewBox="0 0 3109 659" fill="none" xmlns="http://www.w3.org/2000/svg">
<path fill-rule="evenodd" clip-rule="evenodd" d="M440 52C320 52 245 112 215 232C260 172 312.5 149.5 372.5 164.5C406.733 173.067 431.2 197.9 458.283 225.383C502.4 270.167 553.467 322 665 322C785 322 860 262 890 142C845 202 792.5 224.5 732.5 209.5C698.267 200.95 673.8 176.1 646.717 148.617C602.6 103.833 551.533 52 440 52Z" fill="url(#paint0_linear_911_6)"/>
<path fill-rule="evenodd" clip-rule="evenodd" d="M225 230C105 230 30 290 0 410C45 350 97.5 327.5 157.5 342.5C191.733 351.067 216.2 375.9 243.283 403.383C287.4 448.167 338.467 500 450 500C570 500 645 440 675 320C630 380 577.5 402.5 517.5 387.5C483.267 378.95 458.8 354.1 431.717 326.617C387.6 281.833 336.533 230 225 230Z" fill="url(#paint1_linear_911_6)"/>
<path d="M988.949 421.192C974.086 421.192 960.649 418.443 948.636 412.946C936.624 407.347 927.106 399.254 920.082 388.667C913.159 378.08 909.698 365.1 909.698 349.729C909.698 336.495 912.243 325.602 917.333 317.051C922.423 308.5 929.295 301.73 937.947 296.742C946.6 291.754 956.271 287.987 966.96 285.442C977.649 282.897 988.542 280.963 999.638 279.64C1013.69 278.011 1025.09 276.688 1033.84 275.67C1042.6 274.55 1048.96 272.768 1052.93 270.325C1056.9 267.882 1058.88 263.912 1058.88 258.415V257.346C1058.88 244.01 1055.12 233.678 1047.59 226.348C1040.15 219.018 1029.06 215.354 1014.3 215.354C998.925 215.354 986.811 218.764 977.955 225.585C969.2 232.303 963.143 239.786 959.783 248.031L916.875 238.259C921.965 224.007 929.396 212.503 939.169 203.749C949.044 194.892 960.394 188.479 973.221 184.509C986.048 180.437 999.536 178.401 1013.69 178.401C1023.05 178.401 1032.98 179.52 1043.46 181.76C1054.05 183.898 1063.92 187.868 1073.09 193.67C1082.35 199.473 1089.93 207.77 1095.84 218.56C1101.74 229.249 1104.69 243.145 1104.69 260.247V416H1060.11V383.933H1058.27C1055.32 389.838 1050.89 395.64 1044.99 401.341C1039.08 407.042 1031.5 411.775 1022.24 415.542C1012.97 419.308 1001.88 421.192 988.949 421.192ZM998.874 384.544C1011.5 384.544 1022.29 382.05 1031.25 377.062C1040.31 372.074 1047.18 365.558 1051.86 357.516C1056.65 349.372 1059.04 340.669 1059.04 331.405V301.17C1057.41 302.799 1054.25 304.326 1049.57 305.751C1044.99 307.075 1039.75 308.246 1033.84 309.263C1027.94 310.18 1022.19 311.045 1016.59 311.859C1010.99 312.572 1006.31 313.183 1002.54 313.692C993.683 314.812 985.589 316.695 978.26 319.342C971.032 321.988 965.23 325.806 960.852 330.794C956.577 335.68 954.439 342.196 954.439 350.339C954.439 361.639 958.613 370.19 966.96 375.993C975.308 381.694 985.946 384.544 998.874 384.544ZM1169.17 416V103.273H1214.83V219.477H1217.58C1220.22 214.59 1224.04 208.94 1229.03 202.527C1234.02 196.114 1240.94 190.515 1249.8 185.73C1258.65 180.844 1270.36 178.401 1284.92 178.401C1303.85 178.401 1320.75 183.185 1335.61 192.754C1350.48 202.323 1362.13 216.117 1370.58 234.136C1379.13 252.154 1383.41 273.837 1383.41 299.185C1383.41 324.533 1379.18 346.268 1370.73 364.388C1362.28 382.406 1350.68 396.302 1335.92 406.075C1321.16 415.746 1304.31 420.581 1285.38 420.581C1271.12 420.581 1259.47 418.189 1250.41 413.404C1241.45 408.62 1234.43 403.021 1229.34 396.607C1224.25 390.194 1220.33 384.493 1217.58 379.505H1213.76V416H1169.17ZM1213.91 298.727C1213.91 315.219 1216.3 329.674 1221.09 342.094C1225.87 354.513 1232.8 364.235 1241.86 371.259C1250.92 378.182 1262.01 381.643 1275.14 381.643C1288.79 381.643 1300.19 378.029 1309.35 370.801C1318.51 363.472 1325.43 353.546 1330.12 341.025C1334.9 328.504 1337.29 314.404 1337.29 298.727C1337.29 283.254 1334.95 269.358 1330.27 257.04C1325.69 244.723 1318.77 235.001 1309.5 227.875C1300.34 220.749 1288.89 217.186 1275.14 217.186C1261.91 217.186 1250.71 220.596 1241.55 227.417C1232.49 234.237 1225.62 243.756 1220.94 255.972C1216.25 268.187 1213.91 282.439 1213.91 298.727ZM1610.43 238.717L1569.05 246.046C1567.32 240.753 1564.57 235.714 1560.81 230.929C1557.14 226.144 1552.15 222.225 1545.84 219.171C1539.53 216.117 1531.64 214.59 1522.17 214.59C1509.24 214.59 1498.45 217.491 1489.8 223.294C1481.15 228.995 1476.82 236.375 1476.82 245.435C1476.82 253.274 1479.72 259.585 1485.53 264.37C1491.33 269.155 1500.69 273.074 1513.62 276.128L1550.88 284.679C1572.46 289.667 1588.55 297.353 1599.13 307.737C1609.72 318.12 1615.01 331.608 1615.01 348.202C1615.01 362.25 1610.94 374.771 1602.8 385.766C1594.76 396.658 1583.51 405.209 1569.05 411.419C1554.7 417.629 1538.05 420.734 1519.12 420.734C1492.86 420.734 1471.43 415.135 1454.83 403.937C1438.24 392.637 1428.06 376.604 1424.29 355.837L1468.42 349.118C1471.17 360.621 1476.82 369.325 1485.37 375.229C1493.92 381.032 1505.07 383.933 1518.81 383.933C1533.78 383.933 1545.74 380.828 1554.7 374.619C1563.66 368.307 1568.14 360.621 1568.14 351.561C1568.14 344.232 1565.39 338.073 1559.89 333.085C1554.49 328.096 1546.2 324.33 1535 321.785L1495.3 313.081C1473.41 308.093 1457.23 300.152 1446.74 289.26C1436.36 278.367 1431.16 264.574 1431.16 247.879C1431.16 234.034 1435.03 221.92 1442.77 211.536C1450.51 201.153 1461.2 193.06 1474.84 187.257C1488.48 181.353 1504.1 178.401 1521.72 178.401C1547.06 178.401 1567.02 183.898 1581.57 194.892C1596.13 205.785 1605.75 220.393 1610.43 238.717ZM1766.3 420.734C1743.19 420.734 1723.29 415.796 1706.6 405.922C1690 395.946 1677.18 381.948 1668.12 363.93C1659.16 345.809 1654.68 324.584 1654.68 300.254C1654.68 276.23 1659.16 255.055 1668.12 236.732C1677.18 218.408 1689.8 204.105 1705.98 193.823C1722.27 183.541 1741.31 178.401 1763.09 178.401C1776.33 178.401 1789.15 180.589 1801.57 184.967C1813.99 189.344 1825.14 196.215 1835.02 205.581C1844.89 214.946 1852.68 227.111 1858.38 242.076C1864.08 256.939 1866.93 275.008 1866.93 296.284V312.47H1680.48V278.266H1822.19C1822.19 266.253 1819.75 255.615 1814.86 246.352C1809.97 236.986 1803.1 229.606 1794.24 224.21C1785.49 218.815 1775.21 216.117 1763.4 216.117C1750.57 216.117 1739.37 219.273 1729.81 225.585C1720.34 231.794 1713.01 239.938 1707.82 250.016C1702.73 259.993 1700.18 270.834 1700.18 282.541V309.263C1700.18 324.941 1702.93 338.276 1708.43 349.271C1714.03 360.265 1721.81 368.663 1731.79 374.466C1741.77 380.167 1753.42 383.017 1766.76 383.017C1775.41 383.017 1783.3 381.795 1790.43 379.352C1797.55 376.807 1803.71 373.041 1808.9 368.053C1814.1 363.064 1818.07 356.906 1820.81 349.576L1864.03 357.364C1860.57 370.089 1854.36 381.236 1845.4 390.805C1836.54 400.272 1825.4 407.652 1811.96 412.946C1798.62 418.138 1783.4 420.734 1766.3 420.734ZM1963.24 276.739V416H1917.59V181.455H1961.41V219.629H1964.31C1969.71 207.21 1978.16 197.233 1989.66 189.7C2001.27 182.167 2015.87 178.401 2033.49 178.401C2049.47 178.401 2063.47 181.76 2075.48 188.479C2087.49 195.096 2096.8 204.97 2103.42 218.102C2110.04 231.234 2113.35 247.471 2113.35 266.813V416H2067.69V272.31C2067.69 255.31 2063.26 242.025 2054.41 232.456C2045.55 222.785 2033.38 217.95 2017.91 217.95C2007.32 217.95 1997.91 220.24 1989.66 224.821C1981.52 229.402 1975.05 236.121 1970.27 244.977C1965.59 253.732 1963.24 264.319 1963.24 276.739Z" fill="#393C3E"/>
<path d="M2446.99 212.758H2380.11C2378.89 204.105 2376.4 196.419 2372.63 189.7C2368.86 182.88 2364.03 177.077 2358.12 172.293C2352.22 167.508 2345.4 163.843 2337.66 161.298C2330.03 158.753 2321.73 157.481 2312.77 157.481C2296.59 157.481 2282.49 161.502 2270.47 169.544C2258.46 177.484 2249.15 189.089 2242.53 204.359C2235.91 219.527 2232.6 237.953 2232.6 259.636C2232.6 281.93 2235.91 300.661 2242.53 315.83C2249.25 330.998 2258.61 342.45 2270.63 350.187C2282.64 357.924 2296.53 361.792 2312.31 361.792C2321.17 361.792 2329.36 360.621 2336.9 358.28C2344.53 355.938 2351.3 352.528 2357.21 348.049C2363.11 343.468 2368 337.92 2371.87 331.405C2375.84 324.89 2378.58 317.458 2380.11 309.111L2446.99 309.416C2445.26 323.77 2440.94 337.615 2434.01 350.95C2427.19 364.184 2417.98 376.044 2406.38 386.529C2394.87 396.913 2381.13 405.158 2365.15 411.266C2349.27 417.272 2331.3 420.276 2311.24 420.276C2283.35 420.276 2258.41 413.964 2236.42 401.341C2214.54 388.718 2197.23 370.445 2184.5 346.522C2171.88 322.599 2165.57 293.637 2165.57 259.636C2165.57 225.534 2171.98 196.521 2184.81 172.598C2197.64 148.675 2215.04 130.453 2237.03 117.932C2259.02 105.309 2283.76 98.9971 2311.24 98.9971C2329.36 98.9971 2346.16 101.542 2361.64 106.632C2377.21 111.722 2391 119.153 2403.02 128.926C2415.03 138.597 2424.8 150.457 2432.33 164.505C2439.97 178.553 2444.86 194.638 2446.99 212.758ZM2560.07 420.428C2545.1 420.428 2531.77 417.832 2520.06 412.641C2508.35 407.347 2499.09 399.559 2492.27 389.278C2485.55 378.894 2482.19 365.966 2482.19 350.492C2482.19 337.462 2484.58 326.518 2489.37 317.662C2494.15 308.805 2500.67 301.679 2508.91 296.284C2517.16 290.889 2526.52 286.817 2537.01 284.068C2547.6 281.32 2558.69 279.385 2570.3 278.266C2583.94 276.84 2594.93 275.517 2603.28 274.295C2611.63 272.972 2617.69 271.038 2621.45 268.493C2625.22 265.948 2627.1 262.181 2627.1 257.193V256.277C2627.1 246.606 2624.05 239.124 2617.94 233.83C2611.93 228.537 2603.38 225.89 2592.29 225.89C2580.58 225.89 2571.27 228.486 2564.34 233.678C2557.42 238.768 2552.84 245.181 2550.6 252.918L2490.44 248.031C2493.49 233.779 2499.5 221.462 2508.46 211.078C2517.41 200.593 2528.97 192.551 2543.12 186.952C2557.37 181.251 2573.86 178.401 2592.59 178.401C2605.62 178.401 2618.09 179.928 2630 182.982C2642.02 186.036 2652.65 190.769 2661.92 197.183C2671.28 203.596 2678.66 211.842 2684.06 221.92C2689.45 231.896 2692.15 243.857 2692.15 257.804V416H2630.46V383.475H2628.63C2624.86 390.805 2619.82 397.269 2613.51 402.868C2607.2 408.365 2599.62 412.692 2590.76 415.847C2581.9 418.901 2571.67 420.428 2560.07 420.428ZM2578.7 375.535C2588.27 375.535 2596.72 373.652 2604.04 369.885C2611.37 366.017 2617.13 360.825 2621.3 354.31C2625.47 347.795 2627.56 340.414 2627.56 332.168V307.278C2625.52 308.602 2622.72 309.823 2619.16 310.943C2615.7 311.961 2611.78 312.928 2607.4 313.844C2603.03 314.659 2598.65 315.422 2594.27 316.135C2589.89 316.746 2585.92 317.306 2582.36 317.815C2574.73 318.934 2568.06 320.716 2562.36 323.159C2556.66 325.602 2552.23 328.911 2549.07 333.085C2545.92 337.156 2544.34 342.246 2544.34 348.354C2544.34 357.211 2547.55 363.981 2553.96 368.663C2560.47 373.244 2568.72 375.535 2578.7 375.535ZM2742.62 416V181.455H2804.61V222.836H2807.36C2812.25 209.093 2820.39 198.251 2831.8 190.311C2843.2 182.371 2856.84 178.401 2872.72 178.401C2888.8 178.401 2902.49 182.422 2913.79 190.464C2925.09 198.404 2932.63 209.195 2936.39 222.836H2938.84C2943.62 209.398 2952.27 198.659 2964.8 190.616C2977.42 182.473 2992.33 178.401 3009.54 178.401C3031.42 178.401 3049.19 185.374 3062.83 199.32C3076.57 213.165 3083.44 232.812 3083.44 258.262V416H3018.55V271.089C3018.55 258.058 3015.08 248.286 3008.16 241.771C3001.24 235.255 2992.59 231.998 2982.2 231.998C2970.39 231.998 2961.18 235.764 2954.56 243.298C2947.95 250.729 2944.64 260.553 2944.64 272.768V416H2881.57V269.714C2881.57 258.211 2878.27 249.049 2871.65 242.229C2865.13 235.408 2856.53 231.998 2845.84 231.998C2838.62 231.998 2832.1 233.83 2826.3 237.495C2820.6 241.058 2816.07 246.097 2812.71 252.612C2809.35 259.026 2807.67 266.559 2807.67 275.212V416H2742.62Z" fill="#4AA1E6"/>
<path d="M2013.49 623V513.909H2023.02V556.789H2023.88C2024.94 554.339 2026.47 551.817 2028.46 549.225C2030.48 546.633 2033.13 544.467 2036.39 542.727C2039.7 540.951 2043.85 540.063 2048.86 540.063C2055.57 540.063 2061.46 541.839 2066.54 545.39C2071.62 548.906 2075.58 553.842 2078.42 560.198C2081.26 566.519 2082.68 573.888 2082.68 582.304C2082.68 590.756 2081.26 598.16 2078.42 604.516C2075.62 610.873 2071.67 615.827 2066.6 619.378C2061.55 622.929 2055.69 624.705 2049.02 624.705C2044.05 624.705 2039.89 623.817 2036.55 622.041C2033.25 620.266 2030.59 618.082 2028.56 615.489C2026.54 612.862 2024.98 610.305 2023.88 607.819H2022.7V623H2013.49ZM2022.86 582.144C2022.86 588.749 2023.84 594.609 2025.79 599.722C2027.78 604.8 2030.62 608.795 2034.32 611.707C2038.04 614.584 2042.55 616.022 2047.85 616.022C2053.28 616.022 2057.88 614.531 2061.64 611.548C2065.41 608.529 2068.26 604.463 2070.22 599.349C2072.17 594.236 2073.15 588.501 2073.15 582.144C2073.15 575.859 2072.17 570.195 2070.22 565.152C2068.3 560.109 2065.46 556.114 2061.7 553.167C2057.93 550.184 2053.31 548.692 2047.85 548.692C2042.52 548.692 2037.99 550.131 2034.26 553.007C2030.57 555.848 2027.75 559.79 2025.79 564.832C2023.84 569.839 2022.86 575.61 2022.86 582.144ZM2107.19 653.682C2105.3 653.682 2103.55 653.504 2101.91 653.149C2100.28 652.794 2098.98 652.403 2098.02 651.977L2100.58 643.614C2103.81 644.609 2106.69 644.964 2109.21 644.68C2111.73 644.431 2113.97 643.295 2115.92 641.271C2117.87 639.282 2119.61 636.228 2121.14 632.109L2124.12 623.799L2094.03 541.182H2104.31L2128.6 610.482H2129.34L2153.63 541.182H2163.91L2129.29 635.944C2127.84 639.886 2126.04 643.17 2123.91 645.798C2121.78 648.462 2119.31 650.433 2116.51 651.711C2113.74 653.025 2110.63 653.682 2107.19 653.682ZM2229.82 623H2215.97L2256.03 513.909H2269.66L2309.72 623H2295.87L2263.27 531.168H2262.42L2229.82 623ZM2234.93 580.386H2290.76V592.105H2234.93V580.386ZM2325.01 623V541.182H2337.15V553.54H2338C2339.5 549.491 2342.2 546.207 2346.1 543.685C2350.01 541.164 2354.41 539.903 2359.31 539.903C2360.23 539.903 2361.39 539.921 2362.77 539.957C2364.16 539.992 2365.21 540.045 2365.92 540.116V552.901C2365.49 552.794 2364.51 552.634 2362.99 552.421C2361.5 552.173 2359.92 552.048 2358.25 552.048C2354.27 552.048 2350.72 552.883 2347.59 554.552C2344.5 556.185 2342.05 558.458 2340.24 561.37C2338.47 564.246 2337.58 567.531 2337.58 571.224V623H2325.01ZM2400.67 623L2375.74 541.182H2388.95L2406.64 603.824H2407.49L2424.96 541.182H2438.39L2455.65 603.611H2456.5L2474.18 541.182H2487.39L2462.46 623H2450.11L2432.21 560.145H2430.93L2413.03 623H2400.67ZM2504.01 623V541.182H2516.58V623H2504.01ZM2510.4 527.545C2507.95 527.545 2505.84 526.711 2504.06 525.042C2502.32 523.373 2501.45 521.366 2501.45 519.023C2501.45 516.679 2502.32 514.673 2504.06 513.004C2505.84 511.335 2507.95 510.5 2510.4 510.5C2512.85 510.5 2514.95 511.335 2516.69 513.004C2518.46 514.673 2519.35 516.679 2519.35 519.023C2519.35 521.366 2518.46 523.373 2516.69 525.042C2514.95 526.711 2512.85 527.545 2510.4 527.545ZM2552.18 513.909V623H2539.61V513.909H2552.18ZM2606.1 624.705C2599.28 624.705 2593.26 622.982 2588.04 619.538C2582.82 616.058 2578.74 611.157 2575.79 604.836C2572.84 598.479 2571.37 590.969 2571.37 582.304C2571.37 573.71 2572.84 566.253 2575.79 559.932C2578.74 553.611 2582.84 548.728 2588.09 545.283C2593.35 541.839 2599.42 540.116 2606.31 540.116C2611.64 540.116 2615.85 541.004 2618.94 542.78C2622.06 544.52 2624.44 546.509 2626.07 548.746C2627.74 550.947 2629.04 552.759 2629.96 554.179H2631.03V513.909H2643.6V623H2631.45V610.429H2629.96C2629.04 611.92 2627.72 613.803 2626.02 616.075C2624.32 618.312 2621.88 620.319 2618.72 622.094C2615.56 623.835 2611.35 624.705 2606.1 624.705ZM2607.8 613.412C2612.84 613.412 2617.11 612.098 2620.59 609.47C2624.07 606.807 2626.71 603.131 2628.52 598.444C2630.33 593.721 2631.24 588.27 2631.24 582.091C2631.24 575.983 2630.35 570.638 2628.58 566.058C2626.8 561.441 2624.17 557.854 2620.69 555.298C2617.21 552.705 2612.92 551.409 2607.8 551.409C2602.48 551.409 2598.04 552.776 2594.49 555.511C2590.97 558.21 2588.32 561.885 2586.55 566.537C2584.81 571.153 2583.94 576.338 2583.94 582.091C2583.94 587.915 2584.83 593.206 2586.6 597.964C2588.41 602.687 2591.08 606.452 2594.59 609.257C2598.14 612.027 2602.55 613.412 2607.8 613.412ZM2701.61 624.705C2694.22 624.705 2687.74 622.947 2682.16 619.431C2676.62 615.915 2672.29 610.997 2669.17 604.676C2666.08 598.355 2664.53 590.969 2664.53 582.517C2664.53 573.994 2666.08 566.555 2669.17 560.198C2672.29 553.842 2676.62 548.906 2682.16 545.39C2687.74 541.874 2694.22 540.116 2701.61 540.116C2708.99 540.116 2715.46 541.874 2720.99 545.39C2726.57 548.906 2730.9 553.842 2733.99 560.198C2737.12 566.555 2738.68 573.994 2738.68 582.517C2738.68 590.969 2737.12 598.355 2733.99 604.676C2730.9 610.997 2726.57 615.915 2720.99 619.431C2715.46 622.947 2708.99 624.705 2701.61 624.705ZM2701.61 613.412C2707.22 613.412 2711.83 611.974 2715.46 609.097C2719.08 606.221 2721.76 602.439 2723.5 597.751C2725.24 593.064 2726.11 587.986 2726.11 582.517C2726.11 577.048 2725.24 571.952 2723.5 567.229C2721.76 562.506 2719.08 558.689 2715.46 555.777C2711.83 552.865 2707.22 551.409 2701.61 551.409C2695.99 551.409 2691.38 552.865 2687.76 555.777C2684.13 558.689 2681.45 562.506 2679.71 567.229C2677.97 571.952 2677.1 577.048 2677.1 582.517C2677.1 587.986 2677.97 593.064 2679.71 597.751C2681.45 602.439 2684.13 606.221 2687.76 609.097C2691.38 611.974 2695.99 613.412 2701.61 613.412ZM2767.03 623.852C2764.4 623.852 2762.15 622.911 2760.27 621.029C2758.38 619.147 2757.44 616.892 2757.44 614.264C2757.44 611.636 2758.38 609.381 2760.27 607.499C2762.15 605.617 2764.4 604.676 2767.03 604.676C2769.66 604.676 2771.91 605.617 2773.8 607.499C2775.68 609.381 2776.62 611.636 2776.62 614.264C2776.62 616.004 2776.18 617.602 2775.29 619.058C2774.44 620.514 2773.28 621.686 2771.82 622.574C2770.4 623.426 2768.81 623.852 2767.03 623.852ZM2832.42 624.705C2824.75 624.705 2818.14 622.893 2812.6 619.271C2807.06 615.649 2802.8 610.66 2799.82 604.303C2796.83 597.947 2795.34 590.685 2795.34 582.517C2795.34 574.207 2796.87 566.874 2799.92 560.518C2803.01 554.126 2807.31 549.136 2812.81 545.55C2818.35 541.928 2824.82 540.116 2832.2 540.116C2837.96 540.116 2843.14 541.182 2847.76 543.312C2852.37 545.443 2856.16 548.426 2859.1 552.261C2862.05 556.097 2863.88 560.571 2864.59 565.685H2852.02C2851.06 561.956 2848.93 558.653 2845.63 555.777C2842.36 552.865 2837.96 551.409 2832.42 551.409C2827.52 551.409 2823.22 552.687 2819.53 555.244C2815.87 557.766 2813.01 561.335 2810.95 565.951C2808.93 570.532 2807.91 575.912 2807.91 582.091C2807.91 588.412 2808.91 593.916 2810.9 598.604C2812.92 603.291 2815.76 606.931 2819.42 609.523C2823.11 612.116 2827.44 613.412 2832.42 613.412C2835.68 613.412 2838.65 612.844 2841.31 611.707C2843.98 610.571 2846.23 608.938 2848.08 606.807C2849.92 604.676 2851.24 602.119 2852.02 599.136H2864.59C2863.88 603.966 2862.12 608.316 2859.32 612.187C2856.55 616.022 2852.87 619.076 2848.29 621.349C2843.74 623.586 2838.45 624.705 2832.42 624.705ZM2916.21 624.705C2908.82 624.705 2902.34 622.947 2896.76 619.431C2891.22 615.915 2886.89 610.997 2883.77 604.676C2880.68 598.355 2879.13 590.969 2879.13 582.517C2879.13 573.994 2880.68 566.555 2883.77 560.198C2886.89 553.842 2891.22 548.906 2896.76 545.39C2902.34 541.874 2908.82 540.116 2916.21 540.116C2923.59 540.116 2930.05 541.874 2935.59 545.39C2941.17 548.906 2945.5 553.842 2948.59 560.198C2951.72 566.555 2953.28 573.994 2953.28 582.517C2953.28 590.969 2951.72 598.355 2948.59 604.676C2945.5 610.997 2941.17 615.915 2935.59 619.431C2930.05 622.947 2923.59 624.705 2916.21 624.705ZM2916.21 613.412C2921.82 613.412 2926.43 611.974 2930.05 609.097C2933.68 606.221 2936.36 602.439 2938.1 597.751C2939.84 593.064 2940.71 587.986 2940.71 582.517C2940.71 577.048 2939.84 571.952 2938.1 567.229C2936.36 562.506 2933.68 558.689 2930.05 555.777C2926.43 552.865 2921.82 551.409 2916.21 551.409C2910.59 551.409 2905.98 552.865 2902.36 555.777C2898.73 558.689 2896.05 562.506 2894.31 567.229C2892.57 571.952 2891.7 577.048 2891.7 582.517C2891.7 587.986 2892.57 593.064 2894.31 597.751C2896.05 602.439 2898.73 606.221 2902.36 609.097C2905.98 611.974 2910.59 613.412 2916.21 613.412ZM2972.47 623V541.182H2984.61V553.966H2985.68C2987.38 549.598 2990.14 546.207 2993.94 543.792C2997.73 541.342 3002.3 540.116 3007.62 540.116C3013.02 540.116 3017.51 541.342 3021.1 543.792C3024.72 546.207 3027.55 549.598 3029.57 553.966H3030.42C3032.52 549.74 3035.66 546.384 3039.85 543.898C3044.04 541.377 3049.07 540.116 3054.93 540.116C3062.24 540.116 3068.22 542.407 3072.88 546.988C3077.53 551.533 3079.85 558.618 3079.85 568.241V623H3067.28V568.241C3067.28 562.205 3065.63 557.89 3062.33 555.298C3059.03 552.705 3055.14 551.409 3050.66 551.409C3044.91 551.409 3040.46 553.149 3037.29 556.629C3034.13 560.074 3032.55 564.442 3032.55 569.733V623H3019.77V566.963C3019.77 562.311 3018.26 558.565 3015.24 555.724C3012.22 552.847 3008.34 551.409 3003.58 551.409C3000.31 551.409 2997.26 552.279 2994.41 554.019C2991.61 555.759 2989.34 558.174 2987.6 561.263C2985.89 564.317 2985.04 567.851 2985.04 571.864V623H2972.47Z" fill="#393C3E"/>
<defs>
<linearGradient id="paint0_linear_911_6" x1="215" y1="-291.8" x2="517.998" y2="781.318" gradientUnits="userSpaceOnUse">
<stop offset="0.270833" stop-color="#4299E1"/>
<stop offset="0.708333" stop-color="#BEE3F8"/>
</linearGradient>
<linearGradient id="paint1_linear_911_6" x1="-1.43662e-05" y1="-113.8" x2="302.998" y2="959.318" gradientUnits="userSpaceOnUse">
<stop offset="0.270833" stop-color="#4299E1"/>
<stop offset="0.708333" stop-color="#BEE3F8"/>
</linearGradient>
</defs>
</svg>
